#!OML:ASF E:\emotionWalksFemale\Project 1\Capture day 1\Session 1\Female1.ASF
:FULLY-SPECIFIED
:DEGREES
85
root 7.38092 15.1081 42.4598 183.259 23.4271 177.304
lowerback 8.24835 -3.25767 -2.74245
upperback 0.542591 -4.58897 -2.91176
thorax -4.07842 -2.19274 -0.954191
lowerneck 0.569625 9.11422 7.60332
upperneck 3.64847 12.6187 -8.81443
head 2.25649 6.33343 -3.91876
rclavicle 3.57812e-014 3.18055e-015
rhumerus -44.5699 14.5531 -91.9275
rradius 42.7856
rwrist 17.7837
rhand -10.1267 -53.2308
rfingers 7.12502
rthumb -164.138 97.3989
lclavicle 3.57812e-014 3.18055e-015
lhumerus -41.5948 9.44007 70.3766
lradius 40.3454
lwrist -17.5202
lhand -15.6791 -36.0207
lfingers 7.12502
lthumb 10.5097 -6.30343
rfemur -22.5997 15.392 15.7028
rtibia 36.1766
rfoot -20.3454 -11.6214
rtoes -5.81137
lfemur -11.846 -13.9197 -29.3617
ltibia 27.2143
lfoot -32.0033 26.5871
ltoes -5.83128
86
root 7.37192 15.1091 42.4764 183.577 23.2942 177.312
lowerback 8.15303 -3.30939 -2.7148
upperback 0.482303 -4.65593 -2.93167
thorax -4.09189 -2.227 -0.98614
lowerneck 0.675434 9.03516 7.79031
upperneck 3.88181 12.5776 -9.46906
head 2.13525 6.2952 -3.75631
rclavicle 1.95803e-014 2.38542e-014
rhumerus -44.5628 14.5777 -92.0046
rradius 42.873
rwrist 17.76
rhand -10.7626 -53.0337
rfingers 7.12502
rthumb -164.751 97.5484
lclavicle 1.95803e-014 2.38542e-014
lhumerus -41.8901 8.65793 70.2783
lradius 41.0356
lwrist -16.9643
lhand -15.4161 -35.9533
lfingers 7.12502
lthumb 10.7634 -6.24907
rfemur -23.0709 15.1805 15.6256
rtibia 36.3071
rfoot -20.2131 -11.6895
rtoes -6.32672
lfemur -12.3296 -13.4712 -29.2298
ltibia 27.2599
lfoot -31.4257 26.2052
ltoes -6.4783
87
root 7.36196 15.1052 42.4851 183.561 23.1881 177.264
lowerback 8.3009 -3.38315 -2.72379
upperback 0.494986 -4.75982 -2.93225
thorax -4.1609 -2.27648 -0.961487
lowerneck 0.911533 9.11909 7.40258
upperneck 3.75868 12.6744 -8.90586
head 2.22854 6.3697 -3.92713
rclavicle 2.38542e-015 2.62396e-014
rhumerus -44.5816 14.765 -92.0253
rradius 42.9194
rwrist 17.9281
rhand -11.3457 -52.898
rfingers 7.12502
rthumb -165.313 97.6423
lclavicle 2.38542e-015 2.62396e-014
lhumerus -41.7708 9.30861 70.2846
lradius 40.9677
lwrist -17.366
lhand -15.2471 -35.8956
lfingers 7.12502
lthumb 10.9264 -6.19991
rfemur -23.1748 15.007 15.557
rtibia 36.4235
rfoot -20.1214 -11.7427
rtoes -6.66068
lfemur -12.4312 -13.2371 -29.2906
ltibia 27.328
lfoot -31.0628 26.1406
ltoes -6.70443
88
root 7.35304 15.1052 42.4949 183.572 22.9914 177.247
lowerback 8.56773 -3.43776 -2.76522
upperback 0.419462 -4.85253 -2.88279
thorax -4.38139 -2.31832 -0.857666
lowerneck 0.722391 9.20182 7.36678
upperneck 4.52588 12.8407 -8.74393
head 2.51993 6.45036 -3.83175
rclavicle 7.62339e-014 4.13472e-014
rhumerus -44.8189 14.8984 -92.0118
rradius 43.0535
rwrist 18.1531
rhand -12.0421 -52.825
rfingers 7.12502
rthumb -165.984 97.6676
lclavicle 7.62339e-014 4.13472e-014
lhumerus -41.8352 9.15708 70.3849
lradius 41.0946
lwrist -17.0336
lhand -15.1788 -35.9368
lfingers 7.12502
lthumb 10.9923 -6.24458
rfemur -23.2626 14.8644 15.5203
rtibia 36.5316
rfoot -20.2039 -11.7529
rtoes -6.06503
lfemur -12.5535 -12.9267 -29.2897
ltibia 27.3646
lfoot -30.6462 25.9318
ltoes -7.27001
89
root 7.34545 15.1009 42.5021 183.33 22.8134 177.134
lowerback 8.72278 -3.42456 -2.85442
upperback 0.630318 -4.83178 -2.93269
thorax -4.24487 -2.30406 -0.860235
lowerneck 0.328618 9.26493 7.4423
upperneck 5.42513 12.9862 -8.87684
head 2.62414 6.48903 -3.45314
rclavicle -3.16068e-014 2.3059e-014
rhumerus -44.7802 14.9144 -92.0021
rradius 43.2953
rwrist 18.0506
rhand -12.9224 -52.5094
rfingers 7.12502
rthumb -166.832 97.9264
lclavicle -3.16068e-014 2.3059e-014
lhumerus -41.5142 8.88137 70.5319
lradius 41.3079
lwrist -16.8025
lhand -15.296 -36.1161
lfingers 7.12502
lthumb 10.8792 -6.41792
rfemur -23.1024 14.733 15.4443
rtibia 36.6339
rfoot -20.3058 -11.6786
rtoes -5.53291
lfemur -12.4018 -12.6628 -29.4436
ltibia 27.3657
lfoot -30.356 25.6136
ltoes -7.96791
90
root 7.3392 15.0971 42.4933 183.176 22.9468 176.98
lowerback 8.71913 -3.32121 -2.97294
upperback 0.680805 -4.6997 -2.96975
thorax -4.18382 -2.23567 -0.850798
lowerneck 0.37409 9.14483 7.74077
upperneck 5.89657 12.9159 -9.28608
head 2.79638 6.45629 -3.61253
rclavicle 2.06736e-014 2.38542e-015
rhumerus -45.0441 15.0325 -92.0169
rradius 43.5785
rwrist 17.8233
rhand -13.8369 -51.989
rfingers 7.12502
rthumb -167.714 98.392
lclavicle 2.06736e-014 2.38542e-015
lhumerus -41.485 8.76005 70.6653
lradius 41.4724
lwrist -16.6316
lhand -15.2682 -36.3495
lfingers 7.12502
lthumb 10.9061 -6.65278
rfemur -23.0755 14.7031 15.2565
rtibia 36.7143
rfoot -20.2755 -11.4328
rtoes -5.27957
lfemur -12.2921 -12.6977 -29.6886
ltibia 27.3908
lfoot -30.6164 25.6116
ltoes -7.07548
